<svg xmlns="http://www.w3.org/2000/svg" width="48" height="48" viewBox="0 0 48 48">
  <g id="ai_delivery" transform="translate(-7111.943 -1343.331)">
    <g id="Сгруппировать_854" data-name="Сгруппировать 854">
      <path id="Контур_956" data-name="Контур 956" d="M7158.943,1358.331h-46a1,1,0,0,1,0-2h46a1,1,0,0,1,0,2Z" fill="#fff"/>
    </g>
    <g id="Сгруппировать_855" data-name="Сгруппировать 855">
      <path id="Контур_957" data-name="Контур 957" d="M7159.943,1358.936v-1.6c0-.026-.013-.048-.015-.074a1,1,0,0,0-.039-.192.931.931,0,0,0-.07-.19c-.011-.022-.012-.047-.025-.069l-8-13a.787.787,0,0,0-.076-.081,1.037,1.037,0,0,0-.138-.149.979.979,0,0,0-.158-.106.933.933,0,0,0-.168-.077,1,1,0,0,0-.2-.041.935.935,0,0,0-.107-.021h-30a.915.915,0,0,0-.107.021.877.877,0,0,0-.371.116,1.017,1.017,0,0,0-.161.109.937.937,0,0,0-.136.147.857.857,0,0,0-.077.082l-8,13c-.013.022-.014.047-.025.069a.973.973,0,0,0-.07.189.99.99,0,0,0-.039.193c0,.026-.014.048-.014.074v1.6a5.388,5.388,0,0,0,4,5.189v25.206h-3a1,1,0,0,0,0,2h46a1,1,0,0,0,0-2h-3v-25.206A5.389,5.389,0,0,0,7159.943,1358.936Zm-5.4,3.4h-.211a3.4,3.4,0,0,1-3.394-3.4v-1.6a1,1,0,0,0-.035-.173.949.949,0,0,0-.032-.187l-4.477-11.64h3.985l7.559,12.283v1.322A3.4,3.4,0,0,1,7154.548,1362.331Zm-31.6-4.814,4.687-12.186h4.147l-1.823,11.847c0,.027.006.051,0,.077s-.015.049-.015.076v1.6a3.4,3.4,0,0,1-3.4,3.4h-.211a3.4,3.4,0,0,1-3.394-3.4Zm9-.11,1.857-12.076h4.285l1.858,12.076v1.041a3.889,3.889,0,0,1-3.883,3.883h-.235a3.888,3.888,0,0,1-3.882-3.883Zm10,1.041v-1.117a.77.77,0,0,0-.016-.076c0-.026.008-.05,0-.077l-1.823-11.847h4.147l4.688,12.186v1.419a3.4,3.4,0,0,1-3.4,3.4h-.211a3.4,3.4,0,0,1-3.394-3.4Zm-28,.488v-1.322l7.558-12.283h3.985l-4.477,11.64a.923.923,0,0,0-.032.188.964.964,0,0,0-.034.172v1.6a3.4,3.4,0,0,1-3.4,3.4h-.211A3.4,3.4,0,0,1,7113.943,1358.936Zm9,30.4v-11h6v11Zm8,0v-12a1,1,0,0,0-1-1h-8a1,1,0,0,0-1,1v12h-3v-25.04a5.015,5.015,0,0,1,8.394.04h.211a5.39,5.39,0,0,0,4.51-2.45,5.871,5.871,0,0,0,4.767,2.45h.235a5.873,5.873,0,0,0,4.767-2.45,5.389,5.389,0,0,0,4.51,2.45h.211a5.015,5.015,0,0,1,8.4-.04v25.04Z" fill="#fff"/>
      <path id="Контур_958" data-name="Контур 958" d="M7150.943,1366.331h-16a1,1,0,0,0-1,1v19a1,1,0,0,0,1,1h16a1,1,0,0,0,1-1v-19A1,1,0,0,0,7150.943,1366.331Zm-1,19h-14v-17h14Z" fill="#fff"/>
      <path id="Контур_959" data-name="Контур 959" d="M7129.943,1366.331h-8a1,1,0,0,0-1,1v6a1,1,0,0,0,1,1h8a1,1,0,0,0,1-1v-6A1,1,0,0,0,7129.943,1366.331Zm-1,6h-6v-4h6Z" fill="#fff"/>
      <path id="Контур_960" data-name="Контур 960" d="M7143.943,1383.331h3a1,1,0,0,0,1-1v-3a1,1,0,0,0-2,0v2h-2a1,1,0,0,0,0,2Z" fill="#fff"/>
    </g>
  </g>
</svg>
