<svg xmlns="http://www.w3.org/2000/svg" width="48" height="48" viewBox="0 0 48 48">
  <g id="ai_delivery_24" transform="translate(-7851.933 -1343.331)">
    <path id="Контур_962" data-name="Контур 962" d="M7882.115,1376.44a2.911,2.911,0,0,0-4.344.6l-1.793,2.73a13.133,13.133,0,0,1-12.485-12.484l2.731-1.793a2.912,2.912,0,0,0,.6-4.345l-5.93-6.816a2.91,2.91,0,0,0-4.142-.256l-3.844,3.453a2.915,2.915,0,0,0-.973,2.159,31.226,31.226,0,0,0,31.642,31.643,2.916,2.916,0,0,0,2.161-.975l3.452-3.843a2.911,2.911,0,0,0-.256-4.14Zm5.584,8.737-3.451,3.842a.915.915,0,0,1-.673.312,29.227,29.227,0,0,1-29.642-29.643.913.913,0,0,1,.31-.672l3.843-3.452a.908.908,0,0,1,.608-.233l.057,0a.906.906,0,0,1,.632.311l5.931,6.817a.91.91,0,0,1-.188,1.36l-3.061,2.011a1,1,0,0,0-.6.96,15.2,15.2,0,0,0,15.012,15.011.97.97,0,0,0,.934-.564l2.037-3.1a.912.912,0,0,1,1.36-.188l6.816,5.932a.91.91,0,0,1,.08,1.3Z" fill="#fff"/>
    <path id="Контур_963" data-name="Контур 963" d="M7898.933,1343.331h-28a1,1,0,0,0-1,1v22a1,1,0,0,0,1,1h5v6a1,1,0,0,0,.538.886.984.984,0,0,0,.462.114,1,1,0,0,0,.573-.181l9.742-6.819h11.685a1,1,0,0,0,1-1v-22A1,1,0,0,0,7898.933,1343.331Zm-1,22h-11a1,1,0,0,0-.573.18l-8.427,5.9v-5.079a1,1,0,0,0-1-1h-5v-20h26Z" fill="#fff"/>
    <path id="Контур_964" data-name="Контур 964" d="M7879.417,1357.242c-1.792,1.186-3.484,2.307-3.484,4.089a1,1,0,0,0,1,1h7a1,1,0,0,0,0-2h-5.353a16.4,16.4,0,0,1,1.942-1.422c1.965-1.3,4.411-2.921,4.411-5.578,0-2.991-1.809-5-4.5-5s-4.5,2.009-4.5,5a1,1,0,0,0,2,0c0-.9.243-3,2.5-3s2.5,2.1,2.5,3C7882.933,1354.914,7881.146,1356.1,7879.417,1357.242Z" fill="#fff"/>
    <path id="Контур_965" data-name="Контур 965" d="M7886.367,1359.331h4.566v2a1,1,0,0,0,2,0v-2h1a1,1,0,0,0,0-2h-1v-7.6a1.4,1.4,0,0,0-.982-1.329,1.469,1.469,0,0,0-1.661.576l-5.1,8.146a1.374,1.374,0,0,0-.109,1.433A1.432,1.432,0,0,0,7886.367,1359.331Zm4.566-7.613v5.613h-3.512Z" fill="#fff"/>
  </g>
</svg>
