<svg xmlns="http://www.w3.org/2000/svg" width="48" height="32" viewBox="0 0 48 32">
  <g id="ai_oplata" transform="translate(-8224.516 -1351.331)">
    <g id="Сгруппировать_862" data-name="Сгруппировать 862">
      <path id="Контур_967" data-name="Контур 967" d="M8266.516,1362.331h-7a1,1,0,0,1-1-1v-4a1,1,0,0,1,1-1h7a1,1,0,0,1,1,1v4A1,1,0,0,1,8266.516,1362.331Zm-6-2h5v-2h-5Z" fill="#fff"/>
    </g>
    <g id="Сгруппировать_863" data-name="Сгруппировать 863">
      <path id="Контур_968" data-name="Контур 968" d="M8251.516,1358.331h-21a1,1,0,0,1,0-2h21a1,1,0,0,1,0,2Z" fill="#fff"/>
    </g>
    <g id="Сгруппировать_864" data-name="Сгруппировать 864">
      <path id="Контур_969" data-name="Контур 969" d="M8242.516,1362.331h-12a1,1,0,0,1,0-2h12a1,1,0,0,1,0,2Z" fill="#fff"/>
    </g>
    <g id="Сгруппировать_865" data-name="Сгруппировать 865">
      <path id="Контур_970" data-name="Контур 970" d="M8235.516,1374.331h-5a1,1,0,0,1,0-2h5a1,1,0,0,1,0,2Z" fill="#fff"/>
    </g>
    <g id="Сгруппировать_866" data-name="Сгруппировать 866">
      <path id="Контур_971" data-name="Контур 971" d="M8251.516,1378.331h-21a1,1,0,0,1,0-2h21a1,1,0,0,1,0,2Z" fill="#fff"/>
    </g>
    <g id="Сгруппировать_867" data-name="Сгруппировать 867">
      <path id="Контур_972" data-name="Контур 972" d="M8245.516,1374.331h-5a1,1,0,0,1,0-2h5a1,1,0,0,1,0,2Z" fill="#fff"/>
    </g>
    <g id="Сгруппировать_868" data-name="Сгруппировать 868">
      <path id="Контур_973" data-name="Контур 973" d="M8255.516,1374.331h-5a1,1,0,0,1,0-2h5a1,1,0,0,1,0,2Z" fill="#fff"/>
    </g>
    <g id="Сгруппировать_869" data-name="Сгруппировать 869">
      <path id="Контур_974" data-name="Контур 974" d="M8265.516,1374.331h-5a1,1,0,0,1,0-2h5a1,1,0,0,1,0,2Z" fill="#fff"/>
    </g>
    <g id="Сгруппировать_870" data-name="Сгруппировать 870">
      <path id="Контур_975" data-name="Контур 975" d="M8269.641,1383.331h-42.25a2.879,2.879,0,0,1-2.875-2.875v-26.25a2.879,2.879,0,0,1,2.875-2.875h42.25a2.879,2.879,0,0,1,2.875,2.875v26.25A2.879,2.879,0,0,1,8269.641,1383.331Zm-42.25-30a.876.876,0,0,0-.875.875v26.25a.876.876,0,0,0,.875.875h42.25a.876.876,0,0,0,.875-.875v-26.25a.876.876,0,0,0-.875-.875Z" fill="#fff"/>
    </g>
  </g>
</svg>
