<svg xmlns="http://www.w3.org/2000/svg" width="48" height="48" viewBox="0 0 48 48">
  <g id="ai_sales" transform="translate(-7481.901 -1343.331)">
    <path id="Контур_951" data-name="Контур 951" d="M7529.9,1356.331a1,1,0,0,0-1.625-.782l-3.375,2.7v-1.919a19.515,19.515,0,0,0-36.949-1H7482.9a1,1,0,0,0-1,1v34a1,1,0,0,0,1,1h46a.994.994,0,0,0,.362-.074.921.921,0,0,0,.121-.069.886.886,0,0,0,.157-.089c.012-.01.017-.025.028-.035a2.233,2.233,0,0,0,.231-.312.92.92,0,0,0,.049-.169.939.939,0,0,0,.042-.209c0-.015.009-.028.009-.043Zm-10,2.081,3,2.4v23.156l-3,3.6Zm4,27.482,2.864,3.437h-5.728Zm4,1.674-3-3.6v-23.156l3-2.4Zm-16-42.237a11.012,11.012,0,0,1,11,11v1.919l-3.375-2.7a1.016,1.016,0,0,0-.217-.128.2.2,0,0,1-.022-.013,1.012,1.012,0,0,0-.347-.07c-.014,0-.025-.007-.039-.007h-5.051a12.981,12.981,0,0,0-5.287-9.479A10.93,10.93,0,0,1,7511.9,1345.331Zm-.051,10h-10.9a6,6,0,1,1,10.9,0Zm-10.949-10a10.928,10.928,0,0,1,3.338.521,12.981,12.981,0,0,0-5.287,9.479h-9A11.01,11.01,0,0,1,7500.9,1345.331Zm-17,12h4v6a1,1,0,0,0,2,0v-6h22v6a1,1,0,0,0,2,0v-6h4v32h-34Z" fill="#fff"/>
    <path id="Контур_952" data-name="Контур 952" d="M7498.9,1370.331a4,4,0,1,0-4,4A4,4,0,0,0,7498.9,1370.331Zm-6,0a2,2,0,1,1,2,2A2,2,0,0,1,7492.9,1370.331Z" fill="#fff"/>
    <path id="Контур_953" data-name="Контур 953" d="M7506.9,1374.331a4,4,0,1,0,4,4A4,4,0,0,0,7506.9,1374.331Zm0,6a2,2,0,1,1,2-2A2,2,0,0,1,7506.9,1380.331Z" fill="#fff"/>
    <path id="Контур_954" data-name="Контур 954" d="M7507.608,1367.624a1,1,0,0,0-1.414,0l-12,12a1,1,0,1,0,1.414,1.414l12-12A1,1,0,0,0,7507.608,1367.624Z" fill="#fff"/>
  </g>
</svg>
