<svg xmlns="http://www.w3.org/2000/svg" width="16.457" height="19.469" viewBox="0 0 16.457 19.469">
  <path id="cart-white" d="M6722.23,1233.865a4.438,4.438,0,0,1,4.3-4.747,4.532,4.532,0,0,1,4.737,4.747h1.235a1.517,1.517,0,0,1,1.326.68,1.913,1.913,0,0,1,.319.835c.106,1.1.162,2.2.241,3.3.082,1.138.17,2.275.252,3.412s.158,2.291.236,3.436c.031.451.078.9.087,1.352a1.652,1.652,0,0,1-1.652,1.7h-.044q-6.527,0-13.053,0a1.652,1.652,0,0,1-1.679-1.362,3.057,3.057,0,0,1-.01-.753c.08-1.212.169-2.423.257-3.634.1-1.345.2-2.689.3-4.033.08-1.115.163-2.231.231-3.347a1.674,1.674,0,0,1,1.658-1.586C6721.383,1233.864,6721.8,1233.865,6722.23,1233.865Zm.036,1.425c-.446,0-.867-.007-1.287,0-.173,0-.229.139-.24.294-.047.68-.092,1.36-.14,2.039q-.1,1.374-.194,2.749-.122,1.739-.251,3.479c-.068.945-.132,1.891-.208,2.836-.031.386.015.451.4.451h12.787c.388,0,.435-.064.4-.446-.061-.738-.111-1.477-.164-2.215-.065-.917-.127-1.833-.192-2.749q-.126-1.773-.254-3.546-.093-1.3-.183-2.593c-.01-.143-.054-.288-.214-.294-.418-.015-.837-.005-1.273-.005v.289c0,1.038,0,2.076,0,3.114a1.207,1.207,0,0,1-.1.493.7.7,0,0,1-.789.355.738.738,0,0,1-.551-.745q0-1.633,0-3.269v-.226h-6.147v.26c0,1.075,0,2.15,0,3.225a.72.72,0,1,1-1.435-.016c.013-.7.027-1.408.035-2.112C6722.271,1236.212,6722.266,1235.762,6722.266,1235.29Zm7.55-1.436a3.013,3.013,0,0,0-1.552-2.89,2.917,2.917,0,0,0-3.233.112,3,3,0,0,0-1.364,2.778Z" transform="translate(-6718.509 -1229.113)" fill="#fff"/>
</svg>
