<svg xmlns="http://www.w3.org/2000/svg" width="26.718" height="25.638" viewBox="0 0 26.718 25.638">
  <path id="home" d="M48.25,34.63q-3.39-3.405-6.78-6.82l-3.87-3.9a3.184,3.184,0,0,0-2.24-.97h-.01a3.229,3.229,0,0,0-2.26.97l-2.13,2.12c-2.79,2.78-5.67,5.66-8.51,8.5a2.865,2.865,0,0,0-.36.48c-.05.08-.1.15-.15.23v.45a1.08,1.08,0,0,0,.83.76,1.113,1.113,0,0,0,1.05-.44,5.758,5.758,0,0,1,.41-.44l.19-.19.03-.03.11.08v8.9a6.086,6.086,0,0,0,.05.72,4.081,4.081,0,0,0,3.71,3.48c1.17.06,2.36.05,3.52.04h.58a.991.991,0,0,0,1.04-1.09V39h3.77v2.52c0,1.94,0,3.94-.01,5.91a1.131,1.131,0,0,0,.32.83,1.11,1.11,0,0,0,.81.3h3.46a4.127,4.127,0,0,0,3.98-2.79,3.956,3.956,0,0,0,.18-.8,1.073,1.073,0,0,0,.06-.35V35.4l.03-.01c.03-.02.06-.03.09-.05l.03-.02.03.03c.08.09.17.18.25.28a6.374,6.374,0,0,0,.57.59.932.932,0,0,0,.89.2.981.981,0,0,0,.68-.66A1.021,1.021,0,0,0,48.25,34.63Zm-4.21,9.79a2.174,2.174,0,0,1-2.19,2.14l-2.62-.01c-.01,0,0,.01,0,.01V38.09a1.021,1.021,0,0,0-1.12-1.12H32.59a1.128,1.128,0,0,0-.8.3,1.172,1.172,0,0,0-.32.83c.02,1.98.01,3.99.01,5.93v2.51h-.05l-2.97-.01a1.635,1.635,0,0,1-.67-.19,2.146,2.146,0,0,1-1.23-2.08V33.58a.634.634,0,0,1,.22-.51q3.3-3.285,6.59-6.58l1.1-1.1a1.283,1.283,0,0,1,.89-.44h0a1.3,1.3,0,0,1,.89.45l1.46,1.47q3.075,3.1,6.16,6.19a.611.611,0,0,1,.19.47C44.04,35.38,44.04,42.71,44.04,44.42Z" transform="translate(-21.94 -22.94)" fill="#8fae75"/>
</svg>
